<svg width="30" height="30" viewBox="0 0 30 30" fill="none" xmlns="http://www.w3.org/2000/svg">
<path d="M2.63125 13.825C2.3468 14.1516 2.19011 14.57 2.19011 15.0031C2.19011 15.4362 2.3468 15.8546 2.63125 16.1812L13.825 27.375C14.1516 27.6594 14.57 27.8161 15.0031 27.8161C15.4362 27.8161 15.8547 27.6594 16.1812 27.375L27.3687 16.1812C27.6557 15.8558 27.814 15.4369 27.814 15.0031C27.814 14.5693 27.6557 14.1504 27.3687 13.825L16.1812 2.63123C15.8594 2.33725 15.4357 2.18031 15 2.19373C14.5654 2.18231 14.1436 2.34161 13.825 2.63748L2.63125 13.825Z" stroke="#FBCD4B" stroke-linecap="round" stroke-linejoin="round"/>
<path d="M16.4563 11.1562L18.8438 13.5437" stroke="#FBCD4B" stroke-linecap="round" stroke-linejoin="round"/>
<path d="M10.875 5.57501L13.5438 8.24376" stroke="#FBCD4B" stroke-linecap="round" stroke-linejoin="round"/>
<path d="M15 22.3187C16.1391 22.3187 17.0625 21.3953 17.0625 20.2562C17.0625 19.1171 16.1391 18.1937 15 18.1937C13.8609 18.1937 12.9375 19.1171 12.9375 20.2562C12.9375 21.3953 13.8609 22.3187 15 22.3187Z" stroke="#FBCD4B" stroke-linecap="round" stroke-linejoin="round"/>
<path d="M15 11.7625C16.1391 11.7625 17.0625 10.8391 17.0625 9.70001C17.0625 8.56093 16.1391 7.63751 15 7.63751C13.8609 7.63751 12.9375 8.56093 12.9375 9.70001C12.9375 10.8391 13.8609 11.7625 15 11.7625Z" stroke="#FBCD4B" stroke-linecap="round" stroke-linejoin="round"/>
<path d="M20.3 17.0625C21.4391 17.0625 22.3625 16.1391 22.3625 15C22.3625 13.8609 21.4391 12.9375 20.3 12.9375C19.1609 12.9375 18.2375 13.8609 18.2375 15C18.2375 16.1391 19.1609 17.0625 20.3 17.0625Z" stroke="#FBCD4B" stroke-linecap="round" stroke-linejoin="round"/>
<path d="M15 18.1938V11.7625" stroke="#FBCD4B" stroke-linecap="round" stroke-linejoin="round"/>
</svg>
