<svg width="28" height="28" viewBox="0 0 28 28" fill="none" xmlns="http://www.w3.org/2000/svg">
<path d="M18.8009 20.8042C17.6037 21.6105 16.0767 22.0991 14.2687 22.0991C10.775 22.0991 7.80655 19.7414 6.74374 16.5653V16.5531C6.47499 15.7469 6.31618 14.8917 6.31618 14C6.31618 13.1082 6.47499 12.2531 6.74374 11.4469C7.80655 8.27075 10.775 5.91306 14.2687 5.91306C16.2477 5.91306 18.0068 6.59712 19.4116 7.9165L23.2596 4.0685C20.9264 1.89406 17.8968 0.562561 14.2687 0.562561C9.01586 0.562561 4.48374 3.57987 2.27268 7.97762C1.35649 9.78556 0.831177 11.8256 0.831177 14.0001C0.831177 16.1745 1.35649 18.2146 2.27268 20.0225V20.0347C4.48374 24.4202 9.01586 27.4375 14.2687 27.4375C17.8968 27.4375 20.9386 26.2403 23.1619 24.1881C25.7028 21.8426 27.1687 18.3977 27.1687 14.3054C27.1687 13.3526 27.0832 12.4363 26.9244 11.5568H14.2687V16.7608H21.5005C21.1829 18.4344 20.2301 19.8514 18.8009 20.8042Z" stroke="#FBCD4B" stroke-linecap="round" stroke-linejoin="round"/>
</svg>
