<svg width="80" height="80" viewBox="0 0 80 80" fill="none" xmlns="http://www.w3.org/2000/svg">
<path fill-rule="evenodd" clip-rule="evenodd" d="M29.8725 64.569C20.0648 56.5713 6.66669 43.3597 6.66669 30.8681C6.66669 11.165 25.0006 2.20879 40 18.3292C54.9994 2.20879 73.3334 11.1644 73.3334 30.868C73.3334 43.36 59.9354 56.5713 50.1277 64.569C45.6877 68.1897 43.4677 70 40 70C36.5324 70 34.3124 68.1897 29.8725 64.569ZM33.644 35.821C33.9424 35.3947 34.1904 35.0407 34.411 34.7377C34.5977 35.0627 34.806 35.4413 35.0567 35.8973L40.7577 46.2623C41.311 47.2693 41.854 48.257 42.399 48.9737C42.9824 49.7403 44.0077 50.7913 45.6514 50.822C47.2947 50.853 48.359 49.8413 48.9707 49.097C49.5424 48.4013 50.1217 47.435 50.7127 46.4497L50.8974 46.1417C51.6334 44.915 52.0967 44.148 52.5067 43.594C52.8847 43.0837 53.103 42.917 53.266 42.825C53.4287 42.7327 53.684 42.6313 54.316 42.5697C55.002 42.503 55.898 42.5003 57.3287 42.5003H60C61.3807 42.5003 62.5 41.381 62.5 40.0003C62.5 38.6197 61.3807 37.5003 60 37.5003H57.2207C55.9304 37.5003 54.789 37.5003 53.8324 37.5933C52.795 37.694 51.7857 37.917 50.8024 38.474C49.819 39.0307 49.1084 39.7813 48.4884 40.619C47.9164 41.3913 47.3294 42.37 46.6654 43.4767L46.507 43.7407C46.218 44.2227 45.9767 44.624 45.7614 44.9687C45.5587 44.6163 45.333 44.206 45.062 43.7137L39.364 33.3533C38.8504 32.4187 38.3384 31.4875 37.8194 30.8049C37.252 30.0592 36.2797 29.0731 34.7214 28.989C33.1629 28.9049 32.09 29.7805 31.4458 30.4608C30.8561 31.0835 30.247 31.9542 29.6357 32.828L28.6044 34.3013C27.8472 35.383 27.3725 36.057 26.9616 36.543C26.5834 36.9903 26.3731 37.137 26.218 37.2177C26.0628 37.2987 25.8221 37.3867 25.2387 37.44C24.6048 37.498 23.7805 37.5003 22.4601 37.5003H20C18.6193 37.5003 17.5 38.6197 17.5 40.0003C17.5 41.381 18.6193 42.5003 20 42.5003H22.5604C23.7503 42.5003 24.8051 42.5003 25.6934 42.4193C26.6569 42.3313 27.5968 42.137 28.527 41.6527C29.4572 41.1683 30.1554 40.51 30.78 39.771C31.3559 39.0897 31.9607 38.2257 32.6431 37.2507L33.644 35.821Z" fill="#FBCD4B"/>
</svg>
