<svg width="30" height="30" viewBox="0 0 30 30" fill="none" xmlns="http://www.w3.org/2000/svg">
<path d="M11.25 9.375C11.25 9.56042 11.195 9.74168 11.092 9.89585C10.989 10.05 10.8426 10.1702 10.6713 10.2411C10.5 10.3121 10.3115 10.3307 10.1296 10.2945C9.94775 10.2583 9.7807 10.169 9.64959 10.0379C9.51848 9.9068 9.42919 9.73975 9.39301 9.5579C9.35684 9.37604 9.37541 9.18754 9.44636 9.01623C9.51732 8.84493 9.63748 8.69851 9.79165 8.5955C9.94582 8.49248 10.1271 8.4375 10.3125 8.4375C10.4356 8.4375 10.5575 8.46175 10.6713 8.50886C10.785 8.55597 10.8884 8.62503 10.9754 8.71208C11.0625 8.79914 11.1315 8.90249 11.1786 9.01623C11.2258 9.12998 11.25 9.25189 11.25 9.375ZM10.3125 12.6564C10.1882 12.6564 10.069 12.7058 9.98104 12.7937C9.89314 12.8816 9.84375 13.0008 9.84375 13.1251V20.6251C9.84375 20.7494 9.89314 20.8687 9.98104 20.9566C10.069 21.0445 10.1882 21.0939 10.3125 21.0939C10.4368 21.0939 10.556 21.0445 10.644 20.9566C10.7319 20.8687 10.7812 20.7494 10.7812 20.6251V13.1251C10.7812 13.0008 10.7319 12.8816 10.644 12.7937C10.556 12.7058 10.4368 12.6564 10.3125 12.6564ZM17.3438 12.6564C16.8113 12.6563 16.285 12.7699 15.8 12.9895C15.315 13.2091 14.8824 13.5297 14.5312 13.9299V13.1251C14.5312 13.0008 14.4819 12.8816 14.394 12.7937C14.306 12.7058 14.1868 12.6564 14.0625 12.6564C13.9382 12.6564 13.819 12.7058 13.731 12.7937C13.6431 12.8816 13.5938 13.0008 13.5938 13.1251V20.6251C13.5938 20.7494 13.6431 20.8687 13.731 20.9566C13.819 21.0445 13.9382 21.0939 14.0625 21.0939C14.1868 21.0939 14.306 21.0445 14.394 20.9566C14.4819 20.8687 14.5312 20.7494 14.5312 20.6251V16.4064C14.5312 15.6604 14.8276 14.9451 15.355 14.4176C15.8825 13.8902 16.5978 13.5939 17.3438 13.5939C18.0897 13.5939 18.805 13.8902 19.3325 14.4176C19.8599 14.9451 20.1562 15.6604 20.1562 16.4064V20.6251C20.1562 20.7494 20.2056 20.8687 20.2935 20.9566C20.3815 21.0445 20.5007 21.0939 20.625 21.0939C20.7493 21.0939 20.8685 21.0445 20.9565 20.9566C21.0444 20.8687 21.0938 20.7494 21.0938 20.6251V16.4064C21.0926 15.4122 20.6972 14.459 19.9942 13.756C19.2911 13.0529 18.338 12.6575 17.3438 12.6564ZM26.25 5.15625V24.8438C26.2496 25.2166 26.1013 25.574 25.8376 25.8376C25.574 26.1013 25.2166 26.2496 24.8438 26.25H5.15625C4.78342 26.2496 4.42598 26.1013 4.16235 25.8376C3.89872 25.574 3.75043 25.2166 3.75 24.8438V5.15625C3.75042 4.78342 3.89871 4.42598 4.16235 4.16235C4.42598 3.89871 4.78342 3.75042 5.15625 3.75H24.8438C25.2166 3.75042 25.574 3.89871 25.8377 4.16235C26.1013 4.42598 26.2496 4.78342 26.25 5.15625ZM25.3125 5.15625C25.3124 5.03197 25.2629 4.91283 25.175 4.82495C25.0872 4.73707 24.968 4.68764 24.8438 4.6875H5.15625C5.03197 4.68764 4.91283 4.73707 4.82495 4.82495C4.73707 4.91283 4.68764 5.03197 4.6875 5.15625V24.8438C4.68764 24.968 4.73707 25.0872 4.82495 25.175C4.91283 25.2629 5.03197 25.3124 5.15625 25.3125H24.8438C24.968 25.3124 25.0872 25.2629 25.175 25.175C25.2629 25.0872 25.3124 24.968 25.3125 24.8438V5.15625Z" fill="#FBCD4B"/>
</svg>
