<svg width="26" height="30" viewBox="0 0 26 30" fill="none" xmlns="http://www.w3.org/2000/svg">
<g clip-path="url(#clip0_261_77)">
<path d="M22.5469 11.2031V25.0781C22.5469 25.3268 22.4613 25.5652 22.3089 25.741C22.1565 25.9169 21.9499 26.0156 21.7344 26.0156H4.26562C4.05014 26.0156 3.84347 25.9169 3.6911 25.741C3.53873 25.5652 3.45312 25.3268 3.45312 25.0781V4.92188C3.45312 4.67323 3.53873 4.43478 3.6911 4.25896C3.84347 4.08315 4.05014 3.98437 4.26562 3.98438H16.9162" stroke="#FBCD4B"/>
<path d="M11.2622 14.1367L11.0022 16.757C10.9964 16.8154 11.0021 16.8746 11.0188 16.9302C11.0355 16.9858 11.0628 17.0363 11.0986 17.0781C11.1345 17.12 11.178 17.152 11.226 17.1718C11.274 17.1917 11.3252 17.1989 11.3759 17.1929L13.6347 16.8929C13.7112 16.882 13.7825 16.8425 13.8378 16.7804L25.6515 3.09762C25.7143 3.02535 25.7641 2.9395 25.7981 2.84499C25.8321 2.75048 25.8495 2.64916 25.8495 2.54684C25.8495 2.44452 25.8321 2.34321 25.7981 2.2487C25.7641 2.15419 25.7143 2.06834 25.6515 1.99606L24.1281 0.228874C24.0009 0.0823168 23.8285 0 23.6487 0C23.469 0 23.2965 0.0823168 23.1693 0.228874L11.3556 13.907C11.3031 13.9694 11.2702 14.0502 11.2622 14.1367Z" stroke="#FBCD4B"/>
<path d="M20.2284 4.11249L22.6781 7.01874" stroke="#FBCD4B"/>
</g>
<defs>
<clipPath id="clip0_261_77">
<rect width="26" height="30" fill="white"/>
</clipPath>
</defs>
</svg>
