<?xml version="1.0" standalone="no"?>
<!DOCTYPE svg PUBLIC "-//W3C//DTD SVG 20010904//EN"
 "http://www.w3.org/TR/2001/REC-SVG-20010904/DTD/svg10.dtd">
<svg version="1.0" xmlns="http://www.w3.org/2000/svg"
 width="100.000000pt" height="100.000000pt" viewBox="0 0 100.000000 100.000000"
 preserveAspectRatio="xMidYMid meet">

<g transform="translate(0.000000,100.000000) scale(0.100000,-0.100000)"
fill="#000000" stroke="none">
<path d="M159 831 c-36 -36 -37 -70 -3 -110 29 -35 82 -43 104 -16 17 20 36
19 60 -5 36 -36 26 -50 -35 -50 -78 0 -105 -27 -105 -105 0 -51 -2 -55 -24
-55 -21 0 -24 -6 -30 -55 -9 -77 3 -165 23 -173 21 -7 31 -22 31 -49 0 -12 12
-31 26 -42 26 -20 39 -21 294 -21 255 0 268 1 294 21 19 15 26 30 26 54 0 27
4 34 23 37 18 2 23 12 31 59 5 31 6 81 2 112 -6 48 -11 57 -27 57 -11 0 -22 7
-25 15 -4 9 -19 15 -35 15 -24 0 -29 4 -29 25 0 17 -8 29 -23 36 -13 6 -27 20
-32 32 -6 12 -20 23 -32 25 -37 5 -7 42 34 42 39 0 40 6 11 37 -19 20 -20 25
-8 33 8 5 25 10 38 10 12 0 22 5 22 11 0 8 -16 9 -52 5 -29 -4 -55 -9 -57 -12
-2 -2 5 -14 17 -27 27 -29 28 -37 2 -37 -12 0 -26 -12 -35 -30 -15 -30 -16
-30 -99 -30 -46 0 -105 3 -131 7 -42 5 -49 10 -61 40 -8 18 -26 39 -39 45 -17
7 -25 19 -25 35 0 13 -7 37 -15 52 -25 50 -73 55 -116 12z m85 -42 c5 -15 6
-34 3 -43 -9 -22 -54 -20 -67 3 -14 27 -13 37 6 56 22 22 47 15 58 -16z m31
-199 c10 -11 23 -20 29 -20 6 0 5 5 -2 12 -23 23 -12 28 56 28 69 0 99 -10 88
-28 -3 -6 -2 -13 3 -16 5 -4 12 3 16 14 3 11 15 20 25 20 16 0 17 -4 9 -32 -5
-18 -9 -39 -9 -47 0 -24 18 1 27 38 5 19 15 37 23 39 9 3 11 -1 7 -12 -4 -9
-2 -16 4 -16 5 0 12 7 15 15 4 10 21 15 54 15 43 0 49 -3 52 -22 2 -15 11 -24
26 -26 14 -2 22 -10 22 -22 0 -36 12 -50 41 -50 22 0 29 -5 29 -19 0 -10 -7
-24 -15 -31 -19 -16 -19 -31 0 -24 11 4 13 2 9 -9 -3 -8 -16 -18 -30 -21 -13
-4 -24 -11 -24 -16 0 -6 11 -8 25 -4 35 9 31 -5 -5 -17 -35 -13 -32 -28 5 -21
24 4 25 3 25 -56 0 -67 -5 -72 -70 -72 -34 0 -38 2 -34 23 l5 22 -17 -23 c-21
-28 -44 -29 -37 -2 3 11 1 20 -5 20 -6 0 -14 -9 -17 -20 -6 -18 -15 -20 -110
-20 -89 0 -104 2 -99 15 8 19 -10 19 -26 0 -7 -8 -19 -15 -27 -15 -12 0 -13 3
-3 15 6 8 10 20 8 27 -3 8 -11 2 -22 -15 -19 -29 -50 -38 -40 -12 8 20 -6 19
-20 -1 -7 -9 -18 -12 -29 -8 -23 9 -22 31 3 39 27 9 16 24 -13 18 -18 -4 -16
0 13 26 25 22 30 31 18 31 -9 0 -20 -4 -23 -10 -11 -18 -25 -10 -25 15 0 19 5
25 23 25 20 1 21 2 5 14 -23 17 -25 58 -3 50 8 -4 15 -2 15 4 0 5 -7 12 -15
16 -12 4 -15 23 -15 81 0 72 1 76 20 70 22 -7 26 5 8 23 -7 7 -8 12 -2 12 6 0
19 -9 29 -20z m-95 -169 c0 -64 -11 -141 -20 -141 -11 0 -21 106 -14 150 10
59 34 53 34 -9z m674 27 c14 -55 1 -168 -20 -168 -16 0 -18 33 -8 129 7 63 17
78 28 39z"/>
<path d="M300 481 c0 -8 10 -25 21 -37 l21 -23 -28 -25 c-36 -30 -27 -44 10
-15 l27 22 29 -34 c15 -19 31 -31 35 -27 4 4 -5 22 -20 40 -29 34 -28 38 25
68 8 5 12 12 8 15 -4 4 -21 -2 -39 -13 l-31 -20 -29 32 c-17 19 -29 25 -29 17z"/>
<path d="M587 462 c-27 -29 -22 -78 9 -99 24 -15 29 -15 53 -2 34 19 48 60 33
94 -9 19 -19 25 -45 25 -20 0 -41 -7 -50 -18z m81 -34 c2 -20 -4 -31 -22 -44
-33 -21 -56 -5 -56 36 0 31 12 40 50 37 19 -2 26 -8 28 -29z"/>
<path d="M470 410 c0 -5 5 -10 10 -10 6 0 10 5 10 10 0 6 -4 10 -10 10 -5 0
-10 -4 -10 -10z"/>
<path d="M515 340 c3 -5 8 -10 11 -10 2 0 4 5 4 10 0 6 -5 10 -11 10 -5 0 -7
-4 -4 -10z"/>
<path d="M364 286 c-10 -8 -16 -18 -12 -22 4 -4 15 -1 23 6 13 11 20 9 44 -14
l28 -27 24 20 c22 18 25 18 42 3 16 -15 20 -14 47 1 18 11 38 15 55 11 15 -4
25 -2 25 5 0 20 -51 25 -80 8 -25 -15 -29 -15 -40 -2 -16 19 -29 19 -52 -2
-17 -15 -20 -15 -41 5 -27 26 -36 27 -63 8z"/>
</g>
</svg>
