<svg width="30" height="30" viewBox="0 0 30 30" fill="none" xmlns="http://www.w3.org/2000/svg">
<path d="M26.7944 4.07435C26.6007 3.90697 26.3649 3.79582 26.1125 3.75295C25.8601 3.71008 25.6008 3.73713 25.3627 3.83117L3.73488 12.3278C3.45215 12.4389 3.21299 12.6385 3.05319 12.8969C2.89338 13.1552 2.82152 13.4583 2.84837 13.7609C2.87521 14.0635 2.99931 14.3492 3.2021 14.5754C3.40489 14.8015 3.67545 14.9559 3.97332 15.0155L9.84374 16.1896V23.4357C9.8408 23.7145 9.9221 23.9876 10.077 24.2194C10.2319 24.4512 10.4531 24.6309 10.7118 24.7348C10.8851 24.8074 11.071 24.845 11.2589 24.8455C11.4425 24.8449 11.6241 24.8079 11.7933 24.7366C11.9625 24.6652 12.1158 24.561 12.2444 24.43L15.5955 21.0788L20.54 25.4301C20.7948 25.6563 21.1236 25.7815 21.4644 25.7819C21.6125 25.7817 21.7597 25.7583 21.9007 25.7126C22.1331 25.6389 22.3421 25.5056 22.5068 25.3259C22.6716 25.1462 22.7864 24.9264 22.8397 24.6885L27.2476 5.45417C27.3051 5.20472 27.2933 4.94428 27.2134 4.70106C27.1336 4.45785 26.9887 4.24112 26.7944 4.07435ZM3.7822 13.678C3.77054 13.5767 3.79337 13.4745 3.847 13.3878C3.90063 13.3012 3.98193 13.2351 4.07775 13.2003L23.903 5.4118L10.2038 15.3056L4.15717 14.0963C4.05673 14.0789 3.96508 14.0282 3.89704 13.9523C3.82899 13.8764 3.78854 13.7797 3.7822 13.678ZM11.5814 23.7671C11.5159 23.8327 11.4323 23.8773 11.3414 23.8954C11.2505 23.9135 11.1562 23.9042 11.0706 23.8687C10.9849 23.8333 10.9117 23.7732 10.8602 23.6961C10.8087 23.619 10.7812 23.5284 10.7812 23.4357V16.8423L14.8903 20.4583L11.5814 23.7671ZM26.3338 5.24474L21.9259 24.4791C21.9077 24.5582 21.8694 24.6313 21.8145 24.6911C21.7596 24.751 21.6901 24.7955 21.6128 24.8205C21.5356 24.8454 21.4531 24.8498 21.3736 24.8333C21.2941 24.8168 21.2203 24.7799 21.1593 24.7262L11.0631 15.8415L26.258 4.86749C26.298 4.92073 26.3255 4.98225 26.3386 5.04753C26.3517 5.11281 26.3501 5.18019 26.3338 5.24474Z" fill="#FBCD4B"/>
</svg>
